<svg width="86" height="65" viewBox="0 0 86 65" fill="none" xmlns="http://www.w3.org/2000/svg">
<path d="M9.55556 0C4.28507 0 0 4.13559 0 9.22222V13.8333H86V9.22222C86 4.13559 81.7149 0 76.4444 0H9.55556ZM86 27.6667H0V55.3333C0 60.42 4.28507 64.5556 9.55556 64.5556H76.4444C81.7149 64.5556 86 60.42 86 55.3333V27.6667ZM16.7222 46.1111H26.2778C27.5917 46.1111 28.6667 47.1486 28.6667 48.4167C28.6667 49.6847 27.5917 50.7222 26.2778 50.7222H16.7222C15.4083 50.7222 14.3333 49.6847 14.3333 48.4167C14.3333 47.1486 15.4083 46.1111 16.7222 46.1111ZM33.4444 48.4167C33.4444 47.1486 34.5194 46.1111 35.8333 46.1111H54.9444C56.2583 46.1111 57.3333 47.1486 57.3333 48.4167C57.3333 49.6847 56.2583 50.7222 54.9444 50.7222H35.8333C34.5194 50.7222 33.4444 49.6847 33.4444 48.4167Z" fill="#00965F"/>
</svg>
